<svg version="1.1" xmlns="http://www.w3.org/2000/svg" viewBox="0 0 149.7873195032745 120.8845527831649" width="299.574639006549" height="241.7691055663298">
  <!-- svg-source:excalidraw -->
  
  <defs>
    <style>
      @font-face {
        font-family: "Virgil";
        src: url("https://excalidraw.com/FG_Virgil.woff2");
      }
      @font-face {
        font-family: "Cascadia";
        src: url("https://excalidraw.com/Cascadia.woff2");
      }
    </style>
  </defs>
  <g transform="translate(10.412722959278994 10.500913708304608) rotate(359.4793826003809 55.33558538571009 45.673645956874026)"><path d="M0 0 C0 0, 0 0, 0 0 M0 0 C0 0, 0 0, 0 0 M-0.5918940350087234 6.263174381156556 C1.1449422447747137 4.514308647692574, 3.2172966619094647 2.480134722739824, 4.581900514992422 0.25911363846037916 M-0.1366417694510767 6.545285114322893 C1.4098031383514227 4.126242171934751, 2.7392413725527036 2.208916090634804, 4.844737578886098 0.4670248500851208 M0.8401843481789935 13.518849541663705 C3.9893965237202624 7.900394966415654, 6.861710966227605 4.933484327371275, 9.858078318786752 1.397137052853382 M-0.5893934084941043 12.77095717456895 C2.089886459262486 8.975095521442789, 5.243951072103511 6.717495969444567, 11.22260005990876 -0.5738972467288612 M-1.671456095813797 17.303115853015953 C2.160359322093869 15.972394904147203, 8.342116953444357 10.882793880804485, 16.79099488025852 1.1518302957457474 M0.618001403235807 17.706052476447695 C2.50044077297454 13.590312567751909, 7.6772450749847785 10.374041800841097, 16.21504357131519 -0.5938037077966163 M0.5030566139332269 25.006168357743977 C8.576038395520003 12.732828449201856, 17.072937100593215 6.044277709225703, 19.701152902373934 0.14897228723163636 M-0.4199594285153534 24.098783322326003 C7.911403955394279 15.559011591307177, 16.212335665521017 7.002572518462433, 21.073585252554977 0.8309478763654354 M1.0310375011106387 30.35171158588325 C9.877878790059778 17.417083732130592, 18.62295364805576 8.28693512218566, 26.516964160513492 -1.686431618964976 M0.8933573272590891 30.392039597731284 C10.360776387815763 19.804993255031263, 20.445649877390267 7.642285428117916, 26.7988158982735 -0.4211982056486665 M-1.7322966904473027 36.627089179867255 C7.444010956245865 27.27297371266526, 17.91210683907191 16.695404383033114, 30.818063802501953 -0.5463567356333847 M-0.37922050162223186 36.96779995486264 C5.940745369386723 28.83309602607146, 13.283412712844802 20.75318951569075, 31.71606767777989 -1.0012931943625922 M-0.09774484190633359 43.879410407129456 C9.719275542836462 29.146923797074326, 20.95209439555496 17.918533878248965, 38.83133523520206 0.21832557032820787 M0.4237677251593226 41.81253523341917 C10.538035512070055 31.883283015840465, 20.421850448973935 19.455878539728104, 36.65631945692127 0.03169217809108105 M1.4272014535962754 49.74217890077166 C15.440301957009128 33.05938396388561, 30.756505231138217 17.061886139217215, 41.116882356438566 0.6226712361305005 M-0.12451162654914327 49.0000872012683 C14.660352769471704 30.14253865336818, 30.185187235185545 12.842663840305796, 43.485919030006755 0.391941046188677 M1.1682710938852878 52.714825598004566 C13.99844965997198 41.001712021110926, 25.596492705257777 24.60801886552846, 47.75705732307422 0.6478401448752926 M0.3344767375615092 54.62745149288635 C16.871961617254925 33.87958799682059, 36.47347662901452 13.417854722546252, 48.139360887883484 0.8232170527976201 M-0.5265587641765563 60.762885381929976 C12.306116511599221 48.83640017871406, 22.404080933931137 34.992334672476716, 52.04243278293377 -1.2340805162267081 M0.9774148083383949 61.071204251140756 C14.15714434787958 45.79749551464785, 28.44904364637131 30.176597636425477, 53.149008449860574 0.27993770739424306 M1.742850498244998 66.59753001998136 C21.63772115698112 44.92404372066583, 39.46176774343733 22.306402323517034, 57.660829642879975 0.5401003859262907 M-0.32720552389985613 66.92328506573061 C23.068500668177883 40.556280060520066, 46.61368145188131 12.502654359876928, 58.677871831785154 0.18360102784596322 M0.8981218749842057 72.5021969045922 C17.154360595137838 56.26266016562536, 31.332003729834028 36.83594991898196, 62.38328930073757 1.1495012885449896 M-0.7060095563346138 73.47387571385501 C12.384056416377025 57.60767788374111, 26.351729066999198 43.2616048136517, 63.049330077966346 -0.396141101370894 M1.8516856479038069 81.15921779386429 C24.42618992775701 52.187947820834516, 47.35722676690842 24.456619316905957, 69.25310141336932 1.9893445747311844 M-0.9676668606187633 80.19427890088139 C18.76266764394789 56.90881331325233, 38.285277207493706 35.81564745502055, 67.77990892925128 -0.4850562873889075 M-1.4633074101714385 84.92935175000832 C20.9706215585578 61.862176883604704, 41.42772364514486 39.196238356209896, 74.27177612859997 1.195779931695597 M1.2707719200568306 85.67270119878606 C27.05394409134782 55.54464729158849, 53.636978053308525 25.02794432743847, 74.10900305494907 -0.02325827073173059 M-0.9039582673787905 92.45196178112612 C33.293414434474066 56.67922416422815, 62.38524176885532 20.133401626734354, 77.58807185329226 -1.753939007460005 M-0.3833471609607173 90.87067968793646 C25.832185269991488 62.73286744696655, 50.487572666921515 31.766325751241993, 80.03165382090685 0.39121971646802933 M4.816824831030573 91.13216155764619 C26.34247556193909 67.50609320359962, 47.50166628696008 42.95532014679825, 83.18396748527095 0.48336869447510367 M5.67991311006179 91.26647867352673 C34.75606981523628 56.363514632932386, 63.68219984008799 23.95710332970647, 84.82827152143375 0.6834983086867226 M11.573937434995322 91.8540219794525 C32.266001835454404 66.4511457499097, 58.046952285367276 37.141444949066745, 90.06369018139878 -0.2830120793972952 M11.360442179547398 92.22454625270647 C37.878555893266906 60.84097376560938, 65.01603263042018 30.486956749019193, 90.09741314737687 -0.4417213512082441 M14.605408788349727 92.14707418897854 C39.88755929018377 66.33097604875577, 58.77237040503287 39.87105042388566, 95.93968758950055 -1.2528691418664835 M15.467161625314752 91.81826732767479 C43.008804773743066 61.49656063870898, 70.63443756787808 31.105694017583303, 96.2855046180454 -0.3190842537405274 M19.73325250992803 93.0506149536578 C40.394481756860245 68.01753320295528, 59.74022609517061 46.8775765353948, 100.42165561643893 -0.03488635983067212 M21.782625837682467 92.3505189881308 C41.30743639700489 66.52620225399673, 62.46947433470892 44.110190620832164, 99.71961854928637 -0.0661548810427135 M25.83278950659298 91.94033540659204 C47.91903070947666 65.64032046325596, 71.29372919634719 38.2110368574696, 104.70251066003871 -0.12182029607915723 M25.376094932497672 90.83654925194189 C44.61716293867042 70.65742823219733, 62.39393227726404 49.801269942505364, 107.13719648540896 0.5976561513615266 M31.86256117616933 89.807853984992 C57.01477347356537 59.225761740683566, 87.18520331052784 27.68380203348827, 110.74741737716265 1.7096764324898501 M32.47719795406949 90.93976000358441 C55.89343210760314 64.33072779041298, 78.63478784464888 37.4440404922021, 110.7188266672603 -0.39248126366039315 M36.05335717551983 91.86089307195945 C66.78644754736564 60.54720986017101, 93.61298415954826 26.17350065696172, 111.07522965472091 4.716264735092025 M37.508710643245045 91.22813363592579 C58.287674628192335 68.1652523041767, 78.84052036189176 43.70671509614256, 110.71343500323493 6.5266428553728275 M43.59418765246923 90.0481023547051 C65.55541469645006 63.67586985583529, 90.26833620890238 38.83290968139862, 110.31717118948134 11.656227442601413 M41.61627766933347 90.35530640844232 C59.460162881017965 70.33854766692515, 77.61996732429824 50.164153928374354, 110.84071564908507 13.670836974100858 M45.82131101388026 91.65923546633074 C70.12704495251943 65.48941254922076, 92.45352453657492 42.01848991956695, 109.22103685027815 17.955580072451504 M47.701190398181865 91.31699508900145 C61.720898472253154 77.02892979518597, 74.54920888274827 60.85655036867803, 111.1390823701293 17.930868807222815 M51.90420615757772 89.8499733440471 C69.38530425177991 72.22904078995579, 81.98260294297822 58.555155930359724, 111.71292879397413 23.25173250774411 M52.9501091240994 90.63207031207952 C75.18301212994542 65.28036341775288, 96.84003200409012 40.55442799019838, 110.87115465721479 23.972376997606133 M60.03460024042431 92.24210087095595 C73.88175669846963 76.20155844497438, 87.7829479084457 57.86029787601069, 111.92716966839401 30.673021935689896 M57.86784083793316 92.59898322054393 C79.55391359203772 67.64995848037995, 99.8473275136462 43.34876719080267, 110.39742092965065 30.171654054727107 M65.11244091024479 91.44833023426801 C79.51781164240721 75.03666245697286, 93.2482363156895 57.29385411851198, 109.39533038040051 35.4388894893907 M62.807061458992266 90.47683882387102 C77.34858089467328 76.01585723731594, 90.52081542223905 61.91434060137185, 110.20901630328396 36.87207299645319 M69.93492407390193 89.67247756708508 C83.80316545534977 73.80839996229653, 98.20368842361796 55.008213203674295, 112.07614329882793 44.13941318627998 M69.00109360312388 90.74182263992822 C79.8675502349066 80.12368149824121, 90.5232639809585 67.00000280152007, 110.80138579343341 42.31987028748348 M72.88246612922048 89.23428630661785 C85.12727901826058 81.08515679384499, 94.28483972067166 67.37845838724425, 110.82482516751051 47.5619366687912 M75.09362881463711 90.26827405319183 C82.94211606534064 81.3042665982303, 91.78963148999294 71.11967004397529, 110.98735722791761 49.14702458001705 M79.10773173306316 93.1696038359681 C89.44306056367184 77.8655594704172, 102.08504431536254 64.39733697458746, 111.86240001831096 55.517697945026185 M80.17150533437908 90.58511295652929 C89.64494518795038 81.7903648754243, 98.3857306171029 69.39060647227008, 111.21021416008365 55.85413545442137 M84.22160603325474 91.75520484234657 C93.33418054868254 83.6143971861875, 99.62004561024463 71.81782285431728, 109.80561237405408 62.121362327195605 M84.2944303316589 91.05691310941693 C92.58213365878868 81.78199460312223, 102.77625692380941 72.28046701978737, 110.41735907174069 61.74620635767271 M89.48222243665796 91.10896795885503 C94.22778812721846 84.10629665340075, 100.610145677321 77.80436906990573, 112.85595501660259 68.39119907340128 M89.5277576723237 91.14032877972215 C97.64937778693587 83.84127833366017, 103.0651357290936 75.24220787752428, 110.09309114123585 68.18907124513854 M97.4809348410976 91.71469912270422 C97.66117255103816 85.53261926223666, 103.95559774721771 83.20558184565056, 111.82958218979074 75.5286143260767 M96.47221015068264 91.56516810192133 C99.69033351131483 86.53432175019869, 104.25829256082912 81.2621435695491, 111.13226944638772 73.54517751901795 M99.59954148741419 92.71547791027216 C103.814463573745 88.0948350159196, 109.7935119237274 81.59929229846905, 112.33516006739696 79.67838456208683 M101.17179097073132 90.77028711178092 C104.81225143049869 87.46340310642118, 107.12609027563919 83.20993305722746, 111.1565627594467 78.8077324951706 M106.32935703914076 91.40123176112063 C108.71167505309774 88.51879666874183, 109.74035716618107 86.44321560657991, 110.83527191303091 85.55742344616138 M106.29875326343276 91.12637456001937 C107.8885628502504 89.64177087424648, 109.53541927273656 87.96686638671845, 110.87415206868553 85.64141705052153" stroke="#7950f2" stroke-width="0.5" fill="none"></path><path d="M1.5467142965644598 1.4458094630390406 C29.294100995326772 -0.05979819623826865, 59.67941761047092 1.5345342007458318, 109.11870192579944 0.7763530407100916 M0.5864908890798688 0.5017067743465304 C29.42378212297864 -1.177559610758973, 58.842514282475555 0.4386734102619163, 111.6256874700265 -0.5244415747001767 M112.32783364348133 0.7734972629696131 C112.49526753403812 34.71052871467683, 112.82369419314533 65.81642346289284, 111.0145906715842 92.569292730585 M110.94061242539455 0.21807899605482817 C111.65609319610094 23.76806088118169, 111.1266755322883 48.004836093640094, 110.70425762731601 90.48291286074397 M112.15476792149265 90.06532306124296 C80.43490001837677 91.59087694295793, 53.017879023830204 88.68297774204164, -0.2200362179428339 89.97901559521284 M109.92023696500827 91.02152260386225 C78.62562875042639 91.6719476110881, 44.366135777848896 90.87880448769981, -0.44637502264231443 90.378573946588 M1.6387842204421759 93.10039687801924 C0.6655810175353465 71.15372357603582, -0.8556284012383046 54.44732470337369, -1.6257107350975275 1.317106107249856 M0.6167036192491651 92.24769669019457 C-1.0997581756739114 73.16982746892813, 0.3941224240632558 53.878788196087, 0.49516548682004213 0.13321429025381804" stroke="#364fc7" stroke-width="1" fill="none"></path></g><g transform="translate(28.703425772575315 19.036347161112246) rotate(359.4793826003809 55.33558538571009 45.673645956874026)"><path d="M0 0 C0 0, 0 0, 0 0 M0 0 C0 0, 0 0, 0 0 M-0.3960664599807808 6.256048554976575 C1.566113043193074 4.601782490494971, 3.2353745982892033 1.6847206984904615, 4.886021671029276 0.49143669342969 M-0.11395572681444383 6.423249227230541 C1.0827039063087909 4.115238783146725, 2.7799199674155206 2.3183889492583822, 5.093932882654017 0.5735330313292557 M1.6111364686023104 12.148654495596467 C3.052626167123756 8.035738843297382, 7.160138367285105 4.763097975814042, 12.061721727204453 -0.9318952162668346 M0.8632441015075552 11.436202464669526 C3.1569030954018227 8.512744546558118, 6.984489982292126 5.504189413676398, 10.09068742762221 -0.7285703507170318 M-1.263838061182783 17.433265526686483 C6.535595340879511 14.309902367761545, 10.584168677323081 7.5959261832691745, 16.443323002665718 -1.3173729864018986 M-0.8609014377510409 17.5870152003138 C3.255923351826617 14.284540734819835, 8.272579626116388 9.05583415697969, 14.697688999123354 1.183642020162659 M1.1907422116211865 24.277654353245257 C4.389390665598263 17.54804329786713, 13.192060553239138 8.293532233416675, 21.47814163593378 1.1721299546002868 M0.28335717620321255 23.894609692222534 C4.786438643868354 19.806010640689852, 9.261784395715644 14.173916433532382, 22.16011722506758 0.8157930322154883 M-0.12295540137687766 29.960315610978952 C4.863576582857672 21.296069688751913, 13.615581707153805 16.45445253370671, 24.269645762306066 2.0071685103711427 M-0.08262738952884519 30.63377552735453 C8.175276743432885 22.07757759539456, 14.860088617474277 14.230887566852914, 25.534879175622375 0.08926270194470298 M-0.5068186485302171 35.67765055950855 C11.000144783170576 25.344557076110632, 21.239337483134552 11.955842010678772, 31.447397287419832 -1.9897062646911259 M-0.16610787353483047 36.12747036181514 C6.017585269539716 29.152294250491966, 12.276834812152826 21.25250345417797, 30.992460828690625 -0.22750558226711703 M1.4970303468079322 41.272544833455015 C7.661016878334406 31.933037325906845, 17.32346921484499 24.418748845185387, 36.838987625950324 -0.3931206202972213 M-0.5698448269023544 43.14103466420971 C12.261338698242394 29.92395139952844, 22.58650326249073 15.859065013932874, 36.6523542337132 0.626402701353701 M0.7005579993127995 49.93599718310766 C11.790477445545783 37.59361105126597, 23.587961557347803 21.268190217675375, 43.28100993353479 1.2249452479510552 M-0.041533700190562683 48.427570456311926 C15.605806127064557 29.289196429717077, 32.85133036058406 11.95518049413242, 43.05027974359297 -0.3520534338102692 M-1.5752675353783516 55.36165241286467 C18.014605726974295 34.95862217549255, 32.9537705199635 17.339981324274348, 47.933086874848485 1.7703338403430031 M0.3373583595034333 53.72622425150435 C17.64294663154815 35.25247733728993, 35.264488581453236 14.727498819600797, 48.10846378277081 -0.6109438409853531 M-0.18644859259028124 62.22097802301536 C21.29611679967321 37.79922406237019, 40.82015722568474 13.699521626180378, 52.088842855528654 -0.97346628872317 M0.12187027662049843 61.081113696560664 C14.884298541540847 44.81931123453981, 29.259134701867396 27.992359825485103, 53.602861079149605 0.20020611821103174 M-1.0110447956762343 69.3177971481807 C15.474547048557598 49.072646994131496, 30.9790369504487 30.70974160349894, 58.48993179025055 2.1298561110418284 M-0.6852897499269872 67.83961051008622 C20.093274597028188 44.59547413688175, 39.26870818339511 20.648570174104883, 58.133432432170224 -0.4506577844474471 M-0.3548501429894557 74.28991729798166 C13.801541734974682 58.156916522265774, 24.73903895179408 41.28041114013661, 65.13700933465142 -2.0307416559638014 M0.6168286662733564 72.19771922318635 C21.26418471515679 49.00627195094802, 43.42469778938649 23.986800857336398, 63.59136694473554 0.2654547144217858 M1.6429299051452944 80.31075909770755 C23.263708801316135 51.98471613318418, 46.22307672264747 25.888087324757883, 70.60376065340652 -0.3384795894507633 M0.6779910121623942 79.74545592013476 C23.719139022287223 52.71624785907329, 48.93410474529797 22.666653083273502, 68.12935979128643 -0.14249498840759856 M0.16459162936527605 85.24388922675655 C18.649108370650975 65.13990067635056, 37.43814805907586 43.23245057311863, 75.8478726521531 0.9510683649791645 M0.9079410781430113 85.465131176814 C26.41511567143004 55.99293859528334, 51.47923959917629 26.687741465060398, 74.62883444972577 0.7579989954469966 M1.0279608193457292 92.11819706041798 C18.238527593095395 70.93188302760846, 34.63978593567198 52.206081462992394, 77.5250617455664 0.6851509576152495 M-0.5533212738439275 92.05027670249775 C32.61213598686096 54.98613110257592, 62.89808026581916 20.444620453238798, 79.67022046949444 -0.35808631224078624 M5.745837237647976 91.49004138630787 C27.14305029273134 67.63894408767953, 47.63942065294054 38.893888104610475, 85.80004608928368 1.213662992855717 M5.880154353528525 91.11154205628642 C35.10482377763301 55.93016775836686, 66.76665297126802 22.089146507521633, 86.0001757034953 -0.32972939808834667 M11.094605692023187 90.03145697149766 C39.8918862718797 60.718160137926844, 64.72819285829681 28.396528443363678, 89.66057334798018 0.8643219709898489 M11.465129965277164 91.60865121423585 C33.84016939849214 65.04781333295017, 57.23575004434073 38.46846812650954, 89.50186407616923 -0.1909376153220279 M16.01456593411813 93.57165757560836 C33.7176125082179 69.8189744302382, 50.809283000126 49.967307837445794, 94.72839292729319 0.34249144641586327 M15.685759072814385 91.73565558245139 C33.23762106669427 73.05409372561094, 50.69914968724854 52.88244108832897, 95.66217781541914 -0.9271738255592368 M22.95578334057955 91.83634133326095 C45.8383364701764 62.816215533963, 72.59188072789935 31.628232537587756, 100.57328374189788 -0.7936423305769509 M22.255687375052553 91.50398937953841 C48.65181919066657 58.7041914501378, 78.54671438655669 23.846393047612523, 100.54201522068584 -0.15642975702630935 M26.4724118260827 91.14931949474469 C50.894074620884794 63.46452650595107, 74.284968191318 32.565169234934636, 106.52402644743157 -1.7332470555903896 M25.368625671432547 92.28784837727055 C56.14851711516419 58.10917048021612, 86.26031501067558 24.85788380965444, 107.24350289487225 0.11434735365933335 M30.37760704626482 89.58704936445781 C60.39574217306213 58.88725027984813, 89.50080608625028 23.959261997146754, 112.98243120856948 0.062332271664836014 M31.509513064857238 91.82247283903041 C60.78517988427775 57.70153642763654, 89.67968922979935 25.500118163137387, 110.88027351241924 0.8081814032713552 M37.05755416580117 93.45381094268961 C60.143582771552666 67.05232609592687, 80.21430748606593 41.21596373763147, 109.3297786700343 6.051782927591901 M36.424794729767505 91.52307416159167 C53.796969937338986 71.79486195399924, 69.83172813711306 53.080695406526424, 111.1401567903151 6.814027002197307 M41.282440090329004 91.68153028383827 C66.918569535193 63.61951921236972, 94.16068765711708 32.07550477343548, 109.61050053640636 11.95713286025235 M41.58964414406623 90.72840823333686 C62.728157709359635 67.815204952619, 83.73776162080581 43.717470591687636, 111.62511006790581 13.173827869983107 M47.520481234523544 92.3049561381931 C60.23769146706005 77.39682580152223, 75.62040527816092 57.515761565245256, 110.66138093433239 16.804861454267176 M47.178240857194254 92.0197020760397 C68.03328414791524 68.88100230812006, 86.91881135213131 47.50935737473674, 110.6366696691037 17.967377600234123 M51.74889575402209 92.86148331015232 C67.07684790205873 72.51891590336581, 86.43248145545317 54.86050051606125, 109.29829252848765 26.344561209925686 M52.530992722054506 91.46422720308277 C67.67583827416782 73.59319312012104, 83.49864203128573 55.318236738436084, 110.01893701834967 24.57473133972404 M58.767931313499844 92.8663293000052 C75.13274000949043 73.64272061999685, 89.21912680606533 55.45320006951404, 111.4711097245094 32.20347068162605 M59.12481366308782 91.93422626123971 C68.33122544906877 79.66903035856849, 78.22133903336302 66.4278251911284, 110.96974184354661 30.6744887268354 M64.01183731859406 92.21235766214997 C81.4299791287217 71.52587590388187, 97.55679291715009 51.113542490340784, 109.57773643707284 36.3616511196576 M63.04034590819707 91.35048638889313 C73.06499381634167 80.94389376729568, 83.49672136608513 68.6194038319627, 111.01091994413534 37.56272053334191 M66.86289268398002 91.64525464687591 C85.17089644023731 71.47084845125627, 100.54750043886096 54.81147475500779, 111.61901929282479 42.30651940864131 M67.93223775682316 92.00126585781669 C80.71497513650696 78.9906691147152, 91.04427114231693 65.44483351637115, 109.79947639402829 43.151251602848916 M72.46237806529497 91.16335255858122 C85.48258918717454 79.66030039538187, 92.93673404911749 70.27522375245563, 109.79307054341197 47.73447680819812 M73.49636581186896 90.78586743139296 C84.7432769522697 78.97473295429958, 94.78249784133227 67.58744271647676, 111.37815845463783 49.51303959146174 M81.02460362721413 90.4928063975552 C89.68444674639069 79.26565162242065, 100.17561875649818 67.27613949074393, 111.0895909785096 55.25253769361737 M78.44011274777532 92.5335650063956 C90.44035160259637 80.17191956751836, 98.79747030706542 68.54579110467299, 111.42602848790479 55.4275537084541 M85.64788127537477 91.48741721819606 C96.19833926951755 78.98254424474734, 103.11541755219503 68.23144084543904, 112.44478312875498 61.53286249429723 M84.94958954244512 90.24717697120722 C94.89982713223363 81.34353877044227, 104.59221285474045 69.09873074728552, 112.06962715923208 60.379057654708525 M89.62855242445212 90.60380877079308 C94.22627359314653 85.30673934878025, 99.54734632326173 80.02247031781681, 112.05537903382333 67.78793433552701 M89.65991324531925 92.42199284760147 C96.63558906941006 83.69543982707809, 102.31716958846704 75.65664367914594, 111.85325120556058 66.87553626449872 M96.27196023008348 89.3012508597445 C98.76682455172421 86.72396835173221, 105.09593781102895 82.13053907481982, 112.53355344536139 72.92509197692772 M96.12242920930059 91.28934664896096 C100.47568190401826 86.18321499823564, 104.60312784382575 80.03531902925974, 110.55011663830264 74.44697844393005 M101.89964705022032 90.71110012494711 C104.34543897326483 89.86999462372638, 104.92471877695392 86.66333449251273, 111.43485144944748 80.0810875224588 M99.95445625172908 92.0060661543229 C103.63788288294485 87.3892357635262, 106.36056766473467 84.85468075119488, 110.56419938253124 80.03516540924883 M106.62307754285096 91.78366635668314 C107.36946127931974 89.2032609563108, 108.91809058787663 87.2737373475856, 110.65464949238466 85.93255643101566 M106.34822034174971 91.25171199783907 C108.29032780756282 89.43074211876628, 110.0416022901456 87.03754186610963, 110.73864309674481 85.98783249973476" stroke="#228be6" stroke-width="0.5" fill="none"></path><path d="M1.4458094630390406 -1.3314096424728632 C22.318449096112566 -2.427487075376762, 46.70608239678863 -2.408352255869163, 111.44752381213029 -0.6623718831688166 M0.5017067743465304 -0.11229551862925291 C25.09651255847795 -0.8787173341526322, 52.42623789064404 0.30544036519391016, 110.14672919672002 0.6807476477697492 M111.4446680343898 1.4863808061927557 C111.80828417399229 32.59615460367611, 109.29154593804182 61.906114176916304, 111.89317158825715 90.54872145031419 M110.88924976747502 0.8912185626104474 C110.3436369670688 28.703027093625245, 110.82358706725229 56.71553924555069, 109.80679171841611 90.9060243535119 M109.3892019189151 89.42881264065232 C83.2758484228973 91.15054029381179, 51.885618477294535 91.94821286356353, -1.3682763185352087 91.2811199006888 M110.3454014615344 92.13693441630181 C68.28312704233284 89.88155873199743, 24.268699417259697 90.06984965583128, -0.9687179671600461 90.36229913116273 M1.7531049642711878 91.47702224825349 C-1.6378808481892957 67.9101320856545, 0.062265528897343825 45.630219690999844, 1.317106107249856 -1.9710969422012568 M0.9004047764465213 90.78625576377686 C0.32016405041227913 59.48872853236237, -0.5694060367821636 26.259641738264776, 0.13321429025381804 0.38700484205037355" stroke="#364fc7" stroke-width="1" fill="none"></path></g></svg>